<?xml version="1.0" encoding="utf-8"?>
<!-- Generator: Adobe Illustrator 23.0.2, SVG Export Plug-In . SVG Version: 6.00 Build 0)  -->
<svg version="1.1" id="Layer_1" xmlns="http://www.w3.org/2000/svg" xmlns:xlink="http://www.w3.org/1999/xlink" x="0px" y="0px"
	 viewBox="0 0 360 360" style="enable-background:new 0 0 360 360;" xml:space="preserve">
<style type="text/css">
	.st0{opacity:0.8;fill:#EFEFEF;stroke:#EFEFEF;stroke-width:7.9493;stroke-miterlimit:10;}
</style>
<path class="st0" d="M201.09,12.02c-0.63-0.07-1.22,0.04-1.89,0.21l-12.18,3.36l-12.81-3.36c-2.69-0.67-5.92,1.34-5.25,3.36
	c0,3.53,0.46,9.76,1.05,14.7c1.42-0.35,2.74-0.75,3.99-1.05c2.02-0.48,3.91-0.89,5.25-1.26l0.21-0.21c2.97-0.66,5.08-1.04,6.72-1.47
	c5.5-1.43,7.74-1.86,18.27-1.89c0.11-3.35,0-7,0-8.82C204.45,13.58,202.99,12.24,201.09,12.02z M197.1,31.14
	c-6.33,0.32-7.09,1.34-16.17,3.36c-12.1,3.36-54.4,9.91-54.4,36.13c0,20.9,21.3,29.56,42.43,35.5c-0.08-9.71,0.01-18.17,0-25
	c-11.01-3.29-18.9-6.5-18.9-10.5c0-7.02,8.44-10.35,17.85-11.97v-0.21l5.25-0.42c0.11-0.01,0.31,0.01,0.42,0l0.84-0.21
	c0.09-0.01,0.12,0.01,0.21,0c2.13-0.2,4.35-0.33,6.3-0.42c0.09,0,0.12,0,0.21,0c2.57-0.11,4.83-0.21,6.72-0.21c0.08,0,0.13,0,0.21,0
	h0.63c0.93,0,1.88-0.01,2.52,0h0.21h0.84h0.21c0,0,0.24,0.25,0.84,0.42c0.19,0.05,0.54,0.14,0.84,0.21c0.09,0.02,0.11-0.03,0.21,0
	c1.32,0.34,3.46,0.84,6.09,1.26h0.63c3.04,0.45,6.58,0.84,10.71,0.84c11.43,0,21.63-3.4,21.63-12.81c0-8.74-12.06-15.96-27.52-15.96
	C202.06,31.14,199.21,31.03,197.1,31.14z M188.07,63.9c-5.06,0-9.33,0.27-13.02,0.63c0.09,1.52,0.32,2.97,0.63,4.2
	c0.01,11.83-0.11,37.59,0.42,69.1c3.13-1.21,6.2-2.33,9.03-3.36c4.14-1.5,9.5-3.43,13.44-5.25c0.52-26.48,0.63-48.07,0.63-59.23
	c0-1.21,0.06-2.57,0.21-4.2c-3.76-0.59-6.54-1.48-7.98-1.89h-0.21C190.44,63.9,189.31,63.9,188.07,63.9z M205.71,94.15
	c-0.05,7.16-0.08,15.27-0.21,24.15c3.13,2.08,5.04,4.56,5.04,7.56c0,2.9-1.94,5.25-5.25,7.35l-3.78,2.1
	c-0.4,0.18-1.05,0.44-1.47,0.63c-0.69,0.31-1.37,0.54-2.1,0.84c-3.16,1.31-6.71,2.62-10.5,3.99c-2.78,1-5.76,2.18-8.82,3.36
	l-1.47,0.42c-18.78,7.4-38.44,18.44-38.44,43.06c0,20.54,15.82,30.35,31.93,36.97c-0.14-5.01-0.28-10.08-0.42-15.12l-0.21-7.77
	c-5.21-3.41-8.61-7.64-8.61-14.07c0-4.25,2.83-7.72,7.35-10.92v-0.21l2.94-1.68c4.91-2.95,11.2-5.73,17.85-8.61
	c0.16-0.07,0.27-0.14,0.42-0.21l5.04-2.1h0.21c18.72-8.25,38.23-18.38,38.23-38.02C233.44,110.78,220.82,101.24,205.71,94.15z
	 M197.73,169.97c-1.73,0.76-3.37,1.58-5.04,2.31c-5.71,2.47-12.17,5.19-17.01,7.98c0.01,0.12-0.02,0.28,0,0.42
	c0,0.12,0.01,0.42,0,0.42c0.61,21.71,1.92,49.36,2.52,70.15c0.09-0.04,0.12,0.04,0.21,0c5.81-2.44,15.38-6.5,17.22-8.82
	c0.15-0.19,0.27-0.27,0.42-0.42c0.6-21.24,1.09-43.69,1.68-65.74V169.97z M203.4,215.97c-0.24,8.85-0.39,17.71-0.63,26.26
	l-0.21,2.73l-1.89,1.89l-0.21,0.21c-1.75,1.94-4.83,3.75-9.87,6.09c-0.17,0.09-0.45,0.12-0.63,0.21c-0.83,0.39-1.57,0.84-2.52,1.26
	c-2.1,0.93-4.47,1.99-6.72,2.94l-9.03,3.78c-11.09,5.11-21,11.34-21,21c0,10.71,11.81,15.81,23.94,19.53l-1.05-11.34
	c-0.02-0.21,0-0.42,0-0.63c0-0.55,0.02-1.42,0-2.52c-1.67-1.01-2.73-2.23-2.73-3.57c-0.15-2.83,2.69-4.83,6.93-6.72
	c0.13-0.06,0.29-0.16,0.42-0.21c0.09-0.04,0.12-0.17,0.21-0.21c2.78-1.18,6.27-2.33,9.87-3.57c1.22-0.42,2.49-0.8,3.78-1.26
	c14.07-4.99,29.83-12.29,29.83-29.83C221.89,228.51,213.9,221.18,203.4,215.97z M194.79,277.94c-1.76,0.63-3.63,1.33-5.25,1.89
	c-2.83,0.97-6.23,2.05-8.82,3.15c0.09,0.03-0.21,0.25-0.63,0.42c0.13,2.89,0.21,5.37,0.21,6.51l1.05,13.86
	c0.26,3.41,0.58,6.97,0.84,10.29c1.77-0.2,3.54-0.58,5.04-0.84c1.84-0.36,3.48-0.61,5.04-1.05c0.76-9.21,1.46-19.13,2.1-28.36
	C194.37,282.22,194.63,280.09,194.79,277.94z M200.25,296.63c-0.38,5.15-0.85,10.35-1.26,15.33c0.89,1,1.65,2.16,1.68,3.57
	c-1.06,1.65-5.97,3.3-12.39,4.41c-0.11,0.02-0.31-0.02-0.42,0c-6.1,1.01-13.48,1.66-20.79,1.47c-3.75,0.14-6.87,2.81-6.93,6.51
	c-0.06,3.72,2.8,6.86,6.51,6.93c0.47,0.01,1.32,0,2.1,0c8.27,0,32.28-0.71,41.17-9.45c2.65-2.62,3.99-5.97,3.99-9.45
	C213.91,305.81,206.8,299.71,200.25,296.63z M189.33,340.11c-1.54,0.24-3.1,0.47-4.62,0.63c0.69,4.68,1.52,7.56,2.31,7.56
	C187.81,348.3,188.56,345.18,189.33,340.11z"/>
</svg>
