<?xml version="1.0" encoding="utf-8"?>
<!-- Generator: Adobe Illustrator 23.0.2, SVG Export Plug-In . SVG Version: 6.00 Build 0)  -->
<svg version="1.1" id="Layer_1" xmlns="http://www.w3.org/2000/svg" xmlns:xlink="http://www.w3.org/1999/xlink" x="0px" y="0px"
	 viewBox="0 0 300 100" style="enable-background:new 0 0 300 100;" xml:space="preserve">
<style type="text/css">
	.st0{fill:#FFFFFF;}
	.st1{fill:#231F20;}
</style>
<polygon class="st0" points="292,18 292,82 283,82 283,94 17,94 17,82 8,82 8,18 17,18 17,6 283,6 283,18 "/>
<polygon class="st1" points="291.08,18 291.08,82 283.04,82 283.04,93 16.96,93 16.96,82 8.92,82 8.92,18 16.96,18 16.96,7 
	283.04,7 283.04,18 "/>
<g>
	<rect x="290.06" class="st0" width="5.81" height="14.6"/>
	
		<rect x="290.04" y="0.03" transform="matrix(-1.836970e-16 1 -1 -1.836970e-16 300.2618 -285.6632)" class="st0" width="5.84" height="14.53"/>
</g>
<g>
	<rect x="4.13" class="st0" width="5.81" height="14.6"/>
	
		<rect x="4.12" y="0.03" transform="matrix(-1.836970e-16 1 -1 -1.836970e-16 14.3368 0.2618)" class="st0" width="5.84" height="14.53"/>
</g>
<g>
	<rect x="4.13" y="85.4" class="st0" width="5.81" height="14.6"/>
	
		<rect x="4.12" y="85.43" transform="matrix(-1.836970e-16 1 -1 -1.836970e-16 99.7382 85.6632)" class="st0" width="5.84" height="14.53"/>
</g>
<g>
	<rect x="290.06" y="85.4" class="st0" width="5.81" height="14.6"/>
	
		<rect x="290.04" y="85.43" transform="matrix(-1.836970e-16 1 -1 -1.836970e-16 385.6632 -200.2618)" class="st0" width="5.84" height="14.53"/>
</g>
</svg>
